<svg width="316" height="230" viewBox="0 0 316 230" fill="none" xmlns="http://www.w3.org/2000/svg">
<g clip-path="url(#clip0_4642_20053)">
<path d="M315.137 230H0.862305C4.30597 221.218 10.6654 213.768 19.6302 211.558C32.7444 208.33 46.6227 217.207 59.7069 213.869C67.1408 211.975 72.9935 206.454 79.1434 201.869C102.344 184.571 134.139 179.459 161.593 188.615C175.943 193.398 189.02 201.763 203.721 205.321C222.73 209.922 242.61 206.105 262.158 205.478C281.197 204.865 308.475 212.622 315.137 230Z" fill="#F3F5FD"/>
<g opacity="0.3">
<mask id="mask0_4642_20053" style="mask-type:alpha" maskUnits="userSpaceOnUse" x="82" y="0" width="142" height="141">
<rect x="82.9922" width="140.746" height="140.746" fill="#D9D9D9"/>
</mask>
<g mask="url(#mask0_4642_20053)">
<path d="M148.968 67.9482H157.764V36.5961H148.968V67.9482ZM153.366 88.3607C154.708 88.3607 155.833 87.9067 156.741 86.9988C157.649 86.091 158.103 84.966 158.103 83.624C158.103 82.282 157.649 81.1571 156.741 80.2493C155.833 79.3414 154.708 78.8875 153.366 78.8875C152.024 78.8875 150.899 79.3414 149.991 80.2493C149.083 81.1571 148.63 82.282 148.63 83.624C148.63 84.966 149.083 86.091 149.991 86.9988C150.899 87.9067 152.024 88.3607 153.366 88.3607ZM153.366 126.141C138.607 113.352 127.54 101.45 120.165 90.4356C112.789 79.4211 109.101 69.3088 109.101 60.0987C109.101 46.5656 113.479 35.6094 122.234 27.23C130.989 18.8507 141.367 14.661 153.366 14.661C165.366 14.661 175.743 18.8507 184.498 27.23C193.253 35.6094 197.631 46.5656 197.631 60.0987C197.631 69.3088 193.943 79.4211 186.568 90.4356C179.192 101.45 168.125 113.352 153.366 126.141Z" fill="#3167B9"/>
</g>
</g>
<g opacity="0.1">
<mask id="mask1_4642_20053" style="mask-type:alpha" maskUnits="userSpaceOnUse" x="211" y="39" width="90" height="90">
<rect x="211.81" y="39.8722" width="88.6049" height="88.6049" fill="#D9D9D9"/>
</mask>
<g mask="url(#mask1_4642_20053)">
<path d="M256.12 83.6776C257.957 83.6776 259.527 83.0235 260.831 81.7154C262.135 80.4072 262.787 78.8346 262.787 76.9976C262.787 75.1606 262.133 73.5901 260.825 72.2861C259.517 70.9822 257.944 70.3302 256.107 70.3302C254.27 70.3302 252.7 70.9843 251.396 72.2924C250.092 73.6006 249.44 75.1732 249.44 77.0102C249.44 78.8472 250.094 80.4177 251.402 81.7217C252.71 83.0256 254.283 83.6776 256.12 83.6776ZM256.114 119.283C246.822 111.232 239.855 103.739 235.212 96.8051C230.569 89.871 228.247 83.5049 228.247 77.7067C228.247 69.1871 231.003 62.2898 236.515 57.0146C242.026 51.7395 248.559 49.1019 256.114 49.1019C263.668 49.1019 270.201 51.7395 275.712 57.0146C281.224 62.2898 283.98 69.1871 283.98 77.7067C283.98 83.5049 281.658 89.871 277.015 96.8051C272.372 103.739 265.405 111.232 256.114 119.283Z" fill="#3167B9"/>
</g>
</g>
<g opacity="0.1">
<mask id="mask2_4642_20053" style="mask-type:alpha" maskUnits="userSpaceOnUse" x="-6" y="19" width="89" height="90">
<rect x="-5.95337" y="19.7657" width="88.6049" height="88.6049" fill="#D9D9D9"/>
</mask>
<g mask="url(#mask2_4642_20053)">
<path d="M38.3561 63.5712C40.1931 63.5712 41.7636 62.9171 43.0676 61.6089C44.3716 60.3008 45.0235 58.7282 45.0235 56.8912C45.0235 55.0542 44.3695 53.4837 43.0613 52.1797C41.7532 50.8757 40.1806 50.2237 38.3436 50.2237C36.5065 50.2237 34.9361 50.8778 33.6321 52.186C32.3281 53.4941 31.6761 55.0667 31.6761 56.9037C31.6761 58.7407 32.3302 60.3112 33.6384 61.6152C34.9465 62.9192 36.5191 63.5712 38.3561 63.5712ZM38.3498 99.1763C29.0587 91.1252 22.0915 83.6326 17.4482 76.6986C12.805 69.7646 10.4834 63.3984 10.4834 57.6003C10.4834 49.0807 13.2393 42.1833 18.7511 36.9082C24.2628 31.6331 30.7957 28.9955 38.3498 28.9955C45.904 28.9955 52.4369 31.6331 57.9486 36.9082C63.4604 42.1833 66.2163 49.0807 66.2163 57.6003C66.2163 63.3984 63.8947 69.7646 59.2515 76.6986C54.6082 83.6326 47.641 91.1252 38.3498 99.1763Z" fill="#3167B9"/>
</g>
</g>
<path d="M90.3116 105.235C89.8787 105.235 89.4535 105.12 89.0786 104.904C88.7038 104.687 88.3926 104.375 88.176 104C87.9595 103.625 87.8454 103.2 87.845 102.767C87.8446 102.334 87.958 101.909 88.1739 101.533L98.8767 82.9366C99.0365 82.6518 99.2513 82.4016 99.5085 82.2004C99.7657 81.9991 100.06 81.8509 100.375 81.7643C100.69 81.6776 101.019 81.6543 101.343 81.6956C101.667 81.737 101.979 81.8421 102.262 82.005C102.545 82.1679 102.793 82.3854 102.992 82.6447C103.19 82.9041 103.335 83.2002 103.418 83.516C103.502 83.8318 103.521 84.1609 103.477 84.4844C103.432 84.8079 103.323 85.1192 103.157 85.4005L92.4542 103.997C92.2377 104.374 91.9256 104.687 91.5493 104.904C91.1731 105.122 90.7462 105.236 90.3116 105.235Z" fill="#0CBC8B"/>
<path d="M106.876 86.5339C106.481 86.5339 106.084 86.517 105.683 86.4831C102.011 86.1697 98.6149 84.4107 96.2404 81.5929C93.8659 78.7752 92.7079 75.1296 93.0213 71.4581C93.3347 67.7866 95.0938 64.39 97.9115 62.0155C100.729 59.641 104.375 58.4831 108.046 58.7965C111.615 59.1013 114.928 60.7724 117.294 63.461C119.66 66.1496 120.896 69.6481 120.745 73.2263C120.594 76.8046 119.067 80.1863 116.483 82.6658C113.898 85.1453 110.456 86.531 106.875 86.5339H106.876ZM106.859 63.6847C104.515 63.6815 102.264 64.5964 100.586 66.2335C98.909 67.8706 97.9397 70.0995 97.8862 72.4426C97.8326 74.7858 98.699 77.0567 100.3 78.7687C101.9 80.4807 104.108 81.4976 106.45 81.6014C108.791 81.7052 111.08 80.8877 112.826 79.3242C114.572 77.7606 115.636 75.5753 115.79 73.2366C115.944 70.8979 115.176 68.5919 113.65 66.8128C112.124 65.0337 109.962 63.923 107.628 63.7188C107.37 63.6956 107.113 63.6847 106.859 63.6847Z" fill="#0CBC8B"/>
<path d="M72.4194 225.67L65.313 224.825C65.6326 222.135 65.9946 218.904 66.0191 218.374C66.0191 218.408 66.0191 218.436 66.0191 218.457H73.1757C73.174 218.671 73.1739 219.324 72.4194 225.67Z" fill="#E98862"/>
<path d="M43.9036 226.524L36.7471 226.501C36.7471 226.501 36.7706 219.111 36.7706 218.456H43.9271C43.9275 219.113 43.9036 226.524 43.9036 226.524Z" fill="#E98862"/>
<path d="M75.0596 223.194C74.4673 208.196 74.4315 192.444 74.2461 177.407C71.7836 161.188 70.491 143.399 67.4525 127.294L67.3619 127.321L67.0954 125.505L41.1692 123.906C41.1692 123.906 40.4931 136.61 40.2573 140.843C38.9937 163.535 36.4292 200.009 34.9028 223.003L47.467 224.065C49.7111 201.45 53.3701 165.424 55.3978 143.135C57.6232 154.492 59.7218 167.282 61.6973 178.774C62.1298 193.454 62.4917 208.753 62.4522 223.409L75.0596 223.194Z" fill="#262626"/>
<path d="M52.6035 229.292C52.9748 229.29 53.3302 229.141 53.5916 228.877C53.853 228.614 53.9989 228.257 53.9973 227.886C53.9973 227.852 53.9973 227.817 53.9928 227.783C53.972 227.517 53.8757 227.263 53.7152 227.05C53.5546 226.837 53.3366 226.674 53.0867 226.581L44.7558 223.791C44.5944 223.738 44.4234 223.72 44.2545 223.739C44.0856 223.757 43.9227 223.813 43.777 223.9C42.6318 224.695 41.262 225.101 39.8689 225.059C38.7838 224.982 37.7422 224.601 36.8631 223.96C36.7858 223.897 36.6921 223.857 36.593 223.845C36.4938 223.833 36.3932 223.849 36.303 223.892C36.2128 223.935 36.1366 224.003 36.0833 224.087C36.03 224.172 36.0018 224.269 36.002 224.369V228.442C36.002 228.684 36.0981 228.917 36.2693 229.088C36.4404 229.259 36.6725 229.355 36.9146 229.355H36.918L52.6035 229.292Z" fill="#C1D8ED"/>
<path d="M81.1389 229.292C81.5101 229.29 81.8655 229.141 82.1268 228.878C82.3881 228.614 82.534 228.257 82.5324 227.886C82.5324 227.852 82.5307 227.818 82.528 227.784C82.5072 227.518 82.411 227.263 82.2505 227.05C82.09 226.837 81.872 226.674 81.6221 226.581L73.2923 223.791C73.1309 223.738 72.9599 223.72 72.791 223.739C72.622 223.758 72.4592 223.813 72.3135 223.9C71.1683 224.695 69.7985 225.101 68.4054 225.059C67.3202 224.982 66.2785 224.601 65.3993 223.961C65.322 223.897 65.2283 223.857 65.1291 223.845C65.0299 223.833 64.9294 223.85 64.8391 223.892C64.7489 223.935 64.6727 224.003 64.6194 224.087C64.5661 224.172 64.5379 224.27 64.5381 224.37V228.443C64.5381 228.685 64.6342 228.917 64.8054 229.088C64.9765 229.259 65.2087 229.355 65.4507 229.355H65.4545L81.1389 229.292Z" fill="#C1D8ED"/>
<path d="M49.5696 88.9641C49.5696 88.9641 52.2046 87.5669 51.6164 80.3912L57.0608 79.3815C57.0608 79.3815 56.4474 85.8152 59.2033 87.8576L49.5696 88.9641Z" fill="#E98862"/>
<path d="M48.5271 77.6087C48.904 79.7856 50.092 81.8474 52.0123 82.5501C54.2922 83.385 55.9808 83.4416 58.6093 83.4416C62.1961 83.4416 62.0775 79.7008 62.1784 75.931C62.2806 72.1482 61.9784 68.0867 60.5607 66.7678C57.7321 64.1356 49.4261 65.8024 48.416 70.2054C47.8943 72.4829 48.1669 75.5363 48.5271 77.6087Z" fill="#E98862"/>
<path d="M64.3942 66.7262C63.7944 64.5258 61.9242 63.4509 58.8319 64.2593C56.6324 64.8342 56.354 64.3172 54.4913 63.4206C53.4246 62.907 49.9247 63.1415 49.0588 65.5103C48.1304 68.0478 45.2586 65.9929 44.9918 70.1266C44.7686 73.5866 45.9382 78.5325 48.2882 81.3157C49.102 82.2791 50.4294 83.4341 51.4576 83.7196C52.4673 84.0004 56.8328 83.7537 57.2571 83.5036C59.3417 82.2658 59.1277 76.589 58.7971 72.9473C58.7429 72.3482 58.853 71.3524 60.3906 71.3524C61.4471 71.3524 62.0322 71.3272 62.5778 70.934C62.5788 70.934 64.9947 68.9264 64.3942 66.7262Z" fill="#0F1011"/>
<path d="M60.8619 76.6459C60.9035 77.1973 60.7253 77.7427 60.3661 78.1632C60.0069 78.5836 59.4959 78.8449 58.9448 78.8899C58.3936 78.9349 57.8471 78.76 57.4244 78.4034C57.0018 78.0468 56.7374 77.5375 56.689 76.9866C56.6623 76.7176 56.689 76.4459 56.7673 76.1871C56.8457 75.9283 56.9743 75.6875 57.1458 75.4784C57.3172 75.2693 57.5282 75.096 57.7666 74.9685C58.0051 74.841 58.2663 74.7616 58.5354 74.7351C58.5585 74.7327 58.5814 74.7306 58.6035 74.7293C60.0965 74.6819 60.7675 75.4937 60.8619 76.6459Z" fill="#E98862"/>
<path d="M90.5237 100.134C90.5237 100.134 96.2666 97.4589 97.169 96.7357C100.347 94.1911 100.28 92.2939 99.85 91.492C99.3436 90.5443 93.3836 93.6731 93.3836 93.6731C93.3836 93.6731 94.5388 92.0714 93.9155 91.6317C93.6593 91.4511 93.3072 91.6188 92.276 92.6487C91.1006 93.8234 89.0869 95.4714 89.0869 95.4714L90.5237 100.134Z" fill="#E98862"/>
<path d="M41.4886 107.442C41.8177 108.762 41.9975 110.115 42.0247 111.476C42.0247 118.632 38.7872 121.842 39.0257 125.516C39.4006 131.291 67.4574 129.926 68.887 126.646C70.3588 123.264 67.3715 121.179 67.5023 110.115C67.5163 108.911 67.6094 107.651 67.7375 106.368L73.2583 116.251C73.5473 116.769 73.956 117.209 74.4501 117.537C74.9442 117.864 75.5095 118.068 76.0987 118.132C76.6878 118.197 77.2838 118.119 77.8369 117.906C78.3899 117.693 78.8839 117.35 79.2776 116.907L94.5735 99.0159L88.8299 94.9776L77.1961 108.067L68.097 91.7769C67.2355 89.2036 65.2743 87.4799 61.2734 87.3085C59.9052 87.2499 53.2288 87.2404 48.3405 87.2404C45.0567 87.2404 42.3607 88.2481 40.8036 89.8048L40.7801 89.828C40.2092 90.409 39.7691 91.1054 39.4892 91.8704C39.2093 92.6354 39.0962 93.4514 39.1573 94.2637C39.3089 96.5728 39.8143 101.156 41.4886 107.442Z" fill="#3167B9"/>
<path d="M255.768 151.066L252.256 151.896L256.659 170.52L260.171 169.689L255.768 151.066Z" fill="#F0F6FF"/>
<path d="M259.632 149.621L256.617 165.968L258.567 166.328L261.582 149.981L259.632 149.621Z" fill="#C1D8ED"/>
<path d="M259.634 149.616L259.291 151.419L261.239 151.79L261.582 149.987L259.634 149.616Z" fill="#DEE8F5"/>
<path d="M253.596 153.773L252.513 154.199L258.832 170.238L259.914 169.812L253.596 153.773Z" fill="#0CBC8B"/>
<path d="M261.736 160.793H252.212V172.966H261.736V160.793Z" fill="#C1D8ED"/>
<path d="M226.787 194.954H223.225V230H226.787V194.954Z" fill="#C1D8ED"/>
<path d="M223.855 194.954H220.293V230H223.855V194.954Z" fill="#DEE8F5"/>
<path d="M271.159 194.954H267.597V230H271.159V194.954Z" fill="#C1D8ED"/>
<path d="M268.228 194.954H264.665V230H268.228V194.954Z" fill="#DEE8F5"/>
<path d="M236.558 194.954H232.996V230H236.558V194.954Z" fill="#C1D8ED"/>
<path d="M233.626 194.954H230.064V230H233.626V194.954Z" fill="#DEE8F5"/>
<path d="M280.93 194.954H277.368V230H280.93V194.954Z" fill="#C1D8ED"/>
<path d="M277.998 194.954H274.436V230H277.998V194.954Z" fill="#DEE8F5"/>
<path d="M280.931 172.522H233.018V195.795H280.931V172.522Z" fill="#C1D8ED"/>
<path d="M268.205 172.522H220.293V195.795H268.205V172.522Z" fill="#DEE8F5"/>
<g opacity="0.53">
<path d="M265.628 175.83H222.87V192.384H265.628V175.83Z" fill="#F3F5FD"/>
</g>
<path d="M244.249 186.006C245.298 186.006 246.148 185.156 246.148 184.107C246.148 183.058 245.298 182.208 244.249 182.208C243.2 182.208 242.35 183.058 242.35 184.107C242.35 185.156 243.2 186.006 244.249 186.006Z" fill="white"/>
</g>
<defs>
<clipPath id="clip0_4642_20053">
<rect width="314.275" height="230" fill="white" transform="translate(0.862305)"/>
</clipPath>
</defs>
</svg>
